STARTFONT 2.1
FONT -Adobe-Courier-Bold-R-Normal--12-120-75-75-M-70-ISO8859-2
SIZE 12 75 75
FONTBOUNDINGBOX 8 14 0 -3
COMMENT $XConsortium: courB12.bdf,v 1.11 95/01/26 17:59:55 gildea Exp $
COMMENT 
COMMENT +
COMMENT  Copyright 1984-1989, 1994 Adobe Systems Incorporated.
COMMENT  Copyright 1988, 1994 Digital Equipment Corporation.
COMMENT
COMMENT  Adobe is a trademark of Adobe Systems Incorporated which may be
COMMENT  registered in certain jurisdictions.
COMMENT  Permission to use these trademarks is hereby granted only in
COMMENT  association with the images described in this file.
COMMENT
COMMENT  Permission to use, copy, modify, distribute and sell this software
COMMENT  and its documentation for any purpose and without fee is hereby
COMMENT  granted, provided that the above copyright notices appear in all
COMMENT  copies and that both those copyright notices and this permission
COMMENT  notice appear in supporting documentation, and that the names of
COMMENT  Adobe Systems and Digital Equipment Corporation not be used in
COMMENT  advertising or publicity pertaining to distribution of the software
COMMENT  without specific, written prior permission.  Adobe Systems and
COMMENT  Digital Equipment Corporation make no representations about the
COMMENT  suitability of this software for any purpose.  It is provided "as
COMMENT  is" without express or implied warranty.
COMMENT -
COMMENT  
COMMENT  Translation to ISO8859-2 by Cub Soft;  Petr.Kolar@vslib.cz
COMMENT  
STARTPROPERTIES 23
COMMENT Begin LogicalFontDescription
FONTNAME_REGISTRY ""
FAMILY_NAME "Courier"
FOUNDRY "Adobe"
WEIGHT_NAME "Bold"
SLANT "R"
SETWIDTH_NAME "Normal"
ADD_STYLE_NAME ""
PIXEL_SIZE 12
POINT_SIZE 120
RESOLUTION_X 75
RESOLUTION_Y 75
SPACING "M"
AVERAGE_WIDTH 70
CHARSET_REGISTRY "ISO8859"
CHARSET_ENCODING "2"
COMMENT END LogicalFontDescription
CHARSET_COLLECTIONS "ASCII ISO8859-2 ADOBE-STANDARD"
FULL_NAME "Courier Bold"

STARTCHAR space
ENCODING 32
SWIDTH 600 0
DWIDTH 7 0
BBX 1 1 0 0
BITMAP
00
ENDCHAR
STARTCHAR exclam
ENCODING 33
SWIDTH 600 0
DWIDTH 7 0
BBX 2 9 3 0
BITMAP
c0
c0
c0
c0
c0
c0
00
c0
c0
ENDCHAR
STARTCHAR quotedbl
ENCODING 34
SWIDTH 600 0
DWIDTH 7 0
BBX 3 3 2 5
BITMAP
a0
a0
a0
ENDCHAR
STARTCHAR numbersign
ENCODING 35
SWIDTH 600 0
DWIDTH 7 0
BBX 5 8 1 0
BITMAP
50
50
f8
50
50
f8
50
50
ENDCHAR
STARTCHAR dollar
ENCODING 36
SWIDTH 600 0
DWIDTH 7 0
BBX 6 12 1 -2
BITMAP
30
30
7c
cc
e0
78
1c
8c
cc
f8
30
30
ENDCHAR
STARTCHAR percent
ENCODING 37
SWIDTH 600 0
DWIDTH 7 0
BBX 7 8 0 0
BITMAP
60
d0
64
18
30
4c
1a
0c
ENDCHAR
STARTCHAR ampersand
ENCODING 38
SWIDTH 600 0
DWIDTH 7 0
BBX 7 8 0 0
BITMAP
38
6c
60
32
7e
cc
ce
7a
ENDCHAR
STARTCHAR apostrophe
ENCODING 39
SWIDTH 600 0
DWIDTH 7 0
BBX 2 3 2 5
BITMAP
40
c0
80
ENDCHAR
STARTCHAR parenleft
ENCODING 40
SWIDTH 600 0
DWIDTH 7 0
BBX 4 11 2 -2
BITMAP
10
60
60
c0
c0
c0
c0
c0
60
60
10
ENDCHAR
STARTCHAR parenright
ENCODING 41
SWIDTH 600 0
DWIDTH 7 0
BBX 4 11 2 -2
BITMAP
80
60
60
30
30
30
30
30
60
60
80
ENDCHAR
STARTCHAR asterisk
ENCODING 42
SWIDTH 600 0
DWIDTH 7 0
BBX 5 5 2 4
BITMAP
20
20
f8
70
d8
ENDCHAR
STARTCHAR plus
ENCODING 43
SWIDTH 600 0
DWIDTH 7 0
BBX 6 5 1 1
BITMAP
30
30
fc
30
30
ENDCHAR
STARTCHAR comma
ENCODING 44
SWIDTH 600 0
DWIDTH 7 0
BBX 3 3 2 -1
BITMAP
60
60
c0
ENDCHAR
STARTCHAR minus
ENCODING 45
SWIDTH 600 0
DWIDTH 7 0
BBX 6 1 1 3
BITMAP
fc
ENDCHAR
STARTCHAR period
ENCODING 46
SWIDTH 600 0
DWIDTH 7 0
BBX 2 2 3 0
BITMAP
c0
c0
ENDCHAR
STARTCHAR slash
ENCODING 47
SWIDTH 600 0
DWIDTH 7 0
BBX 5 10 1 -2
BITMAP
08
18
18
30
30
60
60
c0
c0
80
ENDCHAR
STARTCHAR zero
ENCODING 48
SWIDTH 600 0
DWIDTH 7 0
BBX 6 9 1 0
BITMAP
78
cc
cc
cc
cc
cc
cc
cc
78
ENDCHAR
STARTCHAR one
ENCODING 49
SWIDTH 600 0
DWIDTH 7 0
BBX 6 9 1 0
BITMAP
30
f0
30
30
30
30
30
30
fc
ENDCHAR
STARTCHAR two
ENCODING 50
SWIDTH 600 0
DWIDTH 7 0
BBX 6 9 1 0
BITMAP
78
cc
cc
cc
18
30
60
cc
fc
ENDCHAR
STARTCHAR three
ENCODING 51
SWIDTH 600 0
DWIDTH 7 0
BBX 6 9 1 0
BITMAP
78
cc
0c
0c
38
0c
0c
cc
78
ENDCHAR
STARTCHAR four
ENCODING 52
SWIDTH 600 0
DWIDTH 7 0
BBX 6 9 1 0
BITMAP
08
18
38
58
58
98
fc
18
3c
ENDCHAR
STARTCHAR five
ENCODING 53
SWIDTH 600 0
DWIDTH 7 0
BBX 6 9 1 0
BITMAP
f8
c0
c0
c0
f8
0c
0c
cc
f8
ENDCHAR
STARTCHAR six
ENCODING 54
SWIDTH 600 0
DWIDTH 7 0
BBX 6 9 1 0
BITMAP
3c
60
c0
c0
f8
cc
cc
cc
78
ENDCHAR
STARTCHAR seven
ENCODING 55
SWIDTH 600 0
DWIDTH 7 0
BBX 6 9 1 0
BITMAP
fc
cc
18
18
18
30
30
60
60
ENDCHAR
STARTCHAR eight
ENCODING 56
SWIDTH 600 0
DWIDTH 7 0
BBX 6 9 1 0
BITMAP
78
cc
cc
cc
78
cc
cc
cc
78
ENDCHAR
STARTCHAR nine
ENCODING 57
SWIDTH 600 0
DWIDTH 7 0
BBX 6 9 1 0
BITMAP
78
cc
cc
cc
7c
0c
0c
18
f0
ENDCHAR
STARTCHAR colon
ENCODING 58
SWIDTH 600 0
DWIDTH 7 0
BBX 2 6 3 0
BITMAP
c0
c0
00
00
c0
c0
ENDCHAR
STARTCHAR semicolon
ENCODING 59
SWIDTH 600 0
DWIDTH 7 0
BBX 3 7 2 -1
BITMAP
60
60
00
00
60
60
c0
ENDCHAR
STARTCHAR less
ENCODING 60
SWIDTH 600 0
DWIDTH 7 0
BBX 5 7 1 0
BITMAP
18
30
60
c0
60
30
18
ENDCHAR
STARTCHAR equal
ENCODING 61
SWIDTH 600 0
DWIDTH 7 0
BBX 6 3 1 2
BITMAP
fc
00
fc
ENDCHAR
STARTCHAR greater
ENCODING 62
SWIDTH 600 0
DWIDTH 7 0
BBX 5 7 2 0
BITMAP
c0
60
30
18
30
60
c0
ENDCHAR
STARTCHAR question
ENCODING 63
SWIDTH 600 0
DWIDTH 7 0
BBX 6 8 1 0
BITMAP
78
cc
cc
18
30
00
30
30
ENDCHAR
STARTCHAR at
ENCODING 64
SWIDTH 600 0
DWIDTH 7 0
BBX 6 8 1 0
BITMAP
70
d8
98
a8
a8
9c
c0
70
ENDCHAR
STARTCHAR A
ENCODING 65
SWIDTH 600 0
DWIDTH 7 0
BBX 8 8 0 0
BITMAP
38
18
34
34
3c
66
66
e7
ENDCHAR
STARTCHAR B
ENCODING 66
SWIDTH 600 0
DWIDTH 7 0
BBX 7 8 0 0
BITMAP
fc
66
66
7c
66
66
66
fc
ENDCHAR
STARTCHAR C
ENCODING 67
SWIDTH 600 0
DWIDTH 7 0
BBX 6 8 1 0
BITMAP
78
cc
cc
c0
c0
cc
cc
78
ENDCHAR
STARTCHAR D
ENCODING 68
SWIDTH 600 0
DWIDTH 7 0
BBX 7 8 0 0
BITMAP
fc
66
66
66
66
66
66
fc
ENDCHAR
STARTCHAR E
ENCODING 69
SWIDTH 600 0
DWIDTH 7 0
BBX 6 8 1 0
BITMAP
fc
64
60
78
68
60
64
fc
ENDCHAR
STARTCHAR F
ENCODING 70
SWIDTH 600 0
DWIDTH 7 0
BBX 6 8 1 0
BITMAP
fc
64
60
78
68
60
60
f0
ENDCHAR
STARTCHAR G
ENCODING 71
SWIDTH 600 0
DWIDTH 7 0
BBX 6 8 1 0
BITMAP
78
cc
cc
c0
dc
cc
cc
78
ENDCHAR
STARTCHAR H
ENCODING 72
SWIDTH 600 0
DWIDTH 7 0
BBX 8 8 0 0
BITMAP
f7
66
66
7e
66
66
66
f7
ENDCHAR
STARTCHAR I
ENCODING 73
SWIDTH 600 0
DWIDTH 7 0
BBX 6 8 1 0
BITMAP
fc
30
30
30
30
30
30
fc
ENDCHAR
STARTCHAR J
ENCODING 74
SWIDTH 600 0
DWIDTH 7 0
BBX 6 8 1 0
BITMAP
7c
18
18
18
18
d8
d8
70
ENDCHAR
STARTCHAR K
ENCODING 75
SWIDTH 600 0
DWIDTH 7 0
BBX 8 8 0 0
BITMAP
f6
6c
68
70
78
6c
66
f7
ENDCHAR
STARTCHAR L
ENCODING 76
SWIDTH 600 0
DWIDTH 7 0
BBX 6 8 0 0
BITMAP
f0
60
60
60
60
60
64
fc
ENDCHAR
STARTCHAR M
ENCODING 77
SWIDTH 600 0
DWIDTH 7 0
BBX 8 8 0 0
BITMAP
e3
76
76
7a
6a
6a
62
e3
ENDCHAR
STARTCHAR N
ENCODING 78
SWIDTH 600 0
DWIDTH 7 0
BBX 8 8 0 0
BITMAP
e7
62
72
7a
5e
4e
46
e6
ENDCHAR
STARTCHAR O
ENCODING 79
SWIDTH 600 0
DWIDTH 7 0
BBX 6 8 1 0
BITMAP
78
cc
cc
cc
cc
cc
cc
78
ENDCHAR
STARTCHAR P
ENCODING 80
SWIDTH 600 0
DWIDTH 7 0
BBX 7 8 0 0
BITMAP
fc
66
66
66
7c
60
60
f8
ENDCHAR
STARTCHAR Q
ENCODING 81
SWIDTH 600 0
DWIDTH 7 0
BBX 6 10 1 -2
BITMAP
78
cc
cc
cc
cc
cc
cc
78
34
6c
ENDCHAR
STARTCHAR R
ENCODING 82
SWIDTH 600 0
DWIDTH 7 0
BBX 8 8 0 0
BITMAP
fc
66
66
7c
6c
66
66
f7
ENDCHAR
STARTCHAR S
ENCODING 83
SWIDTH 600 0
DWIDTH 7 0
BBX 6 8 1 0
BITMAP
7c
cc
c0
f0
3c
0c
cc
f8
ENDCHAR
STARTCHAR T
ENCODING 84
SWIDTH 600 0
DWIDTH 7 0
BBX 6 8 1 0
BITMAP
fc
b4
30
30
30
30
30
78
ENDCHAR
STARTCHAR U
ENCODING 85
SWIDTH 600 0
DWIDTH 7 0
BBX 8 8 0 0
BITMAP
f7
66
66
66
66
66
66
3c
ENDCHAR
STARTCHAR V
ENCODING 86
SWIDTH 600 0
DWIDTH 7 0
BBX 8 8 0 0
BITMAP
f7
66
76
34
38
38
18
10
ENDCHAR
STARTCHAR W
ENCODING 87
SWIDTH 600 0
DWIDTH 7 0
BBX 8 8 0 0
BITMAP
f7
62
6a
6a
6a
7e
3c
34
ENDCHAR
STARTCHAR X
ENCODING 88
SWIDTH 600 0
DWIDTH 7 0
BBX 8 8 0 0
BITMAP
ef
66
34
18
38
34
66
ef
ENDCHAR
STARTCHAR Y
ENCODING 89
SWIDTH 600 0
DWIDTH 7 0
BBX 8 8 0 0
BITMAP
e7
66
34
38
18
18
18
3c
ENDCHAR
STARTCHAR Z
ENCODING 90
SWIDTH 600 0
DWIDTH 7 0
BBX 6 8 1 0
BITMAP
fc
cc
9c
38
70
e4
cc
fc
ENDCHAR
STARTCHAR bracketleft
ENCODING 91
SWIDTH 600 0
DWIDTH 7 0
BBX 3 11 2 -2
BITMAP
e0
c0
c0
c0
c0
c0
c0
c0
c0
c0
e0
ENDCHAR
STARTCHAR backslash
ENCODING 92
SWIDTH 600 0
DWIDTH 7 0
BBX 5 10 2 -2
BITMAP
80
c0
c0
60
60
30
30
18
18
08
ENDCHAR
STARTCHAR bracketright
ENCODING 93
SWIDTH 600 0
DWIDTH 7 0
BBX 3 11 2 -2
BITMAP
e0
60
60
60
60
60
60
60
60
60
e0
ENDCHAR
STARTCHAR asciicircum
ENCODING 94
SWIDTH 600 0
DWIDTH 7 0
BBX 6 3 1 5
BITMAP
30
78
cc
ENDCHAR
STARTCHAR underscore
ENCODING 95
SWIDTH 600 0
DWIDTH 7 0
BBX 7 1 0 -2
BITMAP
fe
ENDCHAR
STARTCHAR grave
ENCODING 96
SWIDTH 600 0
DWIDTH 7 0
BBX 3 2 1 7
BITMAP
c0
60
ENDCHAR
STARTCHAR a
ENCODING 97
SWIDTH 600 0
DWIDTH 7 0
BBX 7 6 1 0
BITMAP
78
0c
7c
cc
cc
7e
ENDCHAR
STARTCHAR b
ENCODING 98
SWIDTH 600 0
DWIDTH 7 0
BBX 7 9 0 0
BITMAP
e0
60
60
7c
66
66
66
66
fc
ENDCHAR
STARTCHAR c
ENCODING 99
SWIDTH 600 0
DWIDTH 7 0
BBX 6 6 1 0
BITMAP
7c
cc
c0
c0
cc
78
ENDCHAR
STARTCHAR d
ENCODING 100
SWIDTH 600 0
DWIDTH 7 0
BBX 7 9 1 0
BITMAP
1c
0c
0c
7c
cc
cc
cc
cc
7e
ENDCHAR
STARTCHAR e
ENCODING 101
SWIDTH 600 0
DWIDTH 7 0
BBX 6 6 1 0
BITMAP
78
cc
fc
c0
cc
78
ENDCHAR
STARTCHAR f
ENCODING 102
SWIDTH 600 0
DWIDTH 7 0
BBX 7 9 1 0
BITMAP
1e
30
30
fc
30
30
30
30
fc
ENDCHAR
STARTCHAR g
ENCODING 103
SWIDTH 600 0
DWIDTH 7 0
BBX 7 9 1 -3
BITMAP
76
cc
cc
cc
cc
7c
0c
0c
78
ENDCHAR
STARTCHAR h
ENCODING 104
SWIDTH 600 0
DWIDTH 7 0
BBX 7 9 0 0
BITMAP
e0
60
60
6c
76
66
66
66
ee
ENDCHAR
STARTCHAR i
ENCODING 105
SWIDTH 600 0
DWIDTH 7 0
BBX 6 9 1 0
BITMAP
30
00
00
f0
30
30
30
30
fc
ENDCHAR
STARTCHAR j
ENCODING 106
SWIDTH 600 0
DWIDTH 7 0
BBX 4 12 1 -3
BITMAP
30
00
00
f0
30
30
30
30
30
30
30
e0
ENDCHAR
STARTCHAR k
ENCODING 107
SWIDTH 600 0
DWIDTH 7 0
BBX 8 9 0 0
BITMAP
e0
60
60
66
6c
78
78
6c
e7
ENDCHAR
STARTCHAR l
ENCODING 108
SWIDTH 600 0
DWIDTH 7 0
BBX 6 9 1 0
BITMAP
f0
30
30
30
30
30
30
30
fc
ENDCHAR
STARTCHAR m
ENCODING 109
SWIDTH 600 0
DWIDTH 7 0
BBX 7 6 0 0
BITMAP
d4
7e
6a
6a
6a
ea
ENDCHAR
STARTCHAR n
ENCODING 110
SWIDTH 600 0
DWIDTH 7 0
BBX 7 6 0 0
BITMAP
dc
76
66
66
66
f6
ENDCHAR
STARTCHAR o
ENCODING 111
SWIDTH 600 0
DWIDTH 7 0
BBX 6 6 1 0
BITMAP
78
cc
cc
cc
cc
78
ENDCHAR
STARTCHAR p
ENCODING 112
SWIDTH 600 0
DWIDTH 7 0
BBX 7 9 0 -3
BITMAP
dc
66
66
66
66
7c
60
60
f0
ENDCHAR
STARTCHAR q
ENCODING 113
SWIDTH 600 0
DWIDTH 7 0
BBX 7 9 1 -3
BITMAP
76
cc
cc
cc
cc
7c
0c
0c
1e
ENDCHAR
STARTCHAR r
ENCODING 114
SWIDTH 600 0
DWIDTH 7 0
BBX 6 6 1 0
BITMAP
dc
74
60
60
60
f8
ENDCHAR
STARTCHAR s
ENCODING 115
SWIDTH 600 0
DWIDTH 7 0
BBX 6 6 1 0
BITMAP
7c
e4
78
1c
cc
78
ENDCHAR
STARTCHAR t
ENCODING 116
SWIDTH 600 0
DWIDTH 7 0
BBX 6 8 1 0
BITMAP
60
60
fc
60
60
60
64
38
ENDCHAR
STARTCHAR u
ENCODING 117
SWIDTH 600 0
DWIDTH 7 0
BBX 8 6 0 0
BITMAP
ee
66
66
66
66
3b
ENDCHAR
STARTCHAR v
ENCODING 118
SWIDTH 600 0
DWIDTH 7 0
BBX 8 6 0 0
BITMAP
f7
66
34
3c
18
18
ENDCHAR
STARTCHAR w
ENCODING 119
SWIDTH 600 0
DWIDTH 7 0
BBX 8 6 0 0
BITMAP
f7
62
6a
7a
3c
34
ENDCHAR
STARTCHAR x
ENCODING 120
SWIDTH 600 0
DWIDTH 7 0
BBX 6 6 1 0
BITMAP
ec
78
30
78
ec
cc
ENDCHAR
STARTCHAR y
ENCODING 121
SWIDTH 600 0
DWIDTH 7 0
BBX 8 9 0 -3
BITMAP
f7
66
64
3c
38
18
30
30
78
ENDCHAR
STARTCHAR z
ENCODING 122
SWIDTH 600 0
DWIDTH 7 0
BBX 6 6 1 0
BITMAP
fc
d8
30
60
ec
fc
ENDCHAR
STARTCHAR braceleft
ENCODING 123
SWIDTH 600 0
DWIDTH 7 0
BBX 4 11 2 -2
BITMAP
30
60
60
60
60
c0
60
60
60
60
30
ENDCHAR
STARTCHAR bar
ENCODING 124
SWIDTH 600 0
DWIDTH 7 0
BBX 2 10 3 -2
BITMAP
c0
c0
c0
c0
c0
c0
c0
c0
c0
c0
ENDCHAR
STARTCHAR braceright
ENCODING 125
SWIDTH 600 0
DWIDTH 7 0
BBX 4 11 2 -2
BITMAP
c0
60
60
60
60
30
60
60
60
60
c0
ENDCHAR
STARTCHAR asciitilde
ENCODING 126
SWIDTH 600 0
DWIDTH 7 0
BBX 6 3 1 2
BITMAP
64
fc
98
ENDCHAR
STARTCHAR nobreakspace
ENCODING 160
SWIDTH 600 0
DWIDTH 7 0
BBX 1 1 0 0
BITMAP
00
ENDCHAR
STARTCHAR Aogonek
ENCODING 161
SWIDTH 600 0
DWIDTH 7 0
BBX 8 11 0 -3
BITMAP
38
18
34
34
3c
66
66
e7
18
30
1c
ENDCHAR
STARTCHAR breve
ENCODING 162
SWIDTH 600 0
DWIDTH 7 0
BBX 5 2 1 7
BITMAP
d8
70
ENDCHAR
STARTCHAR Lstroke
ENCODING 163
SWIDTH 600 0
DWIDTH 7 0
BBX 7 8 0 0
BITMAP
f0
60
70
60
e0
66
66
fe
ENDCHAR
STARTCHAR currency
ENCODING 164
SWIDTH 600 0
DWIDTH 7 0
BBX 6 6 1 1
BITMAP
cc
78
48
48
78
cc
ENDCHAR
STARTCHAR Lcaron
ENCODING 165
SWIDTH 640 0
DWIDTH 8 0
BBX 7 9 0 0
BITMAP
02
f6
64
60
60
60
60
64
fc
ENDCHAR
STARTCHAR Sacute
ENCODING 166
SWIDTH 600 0
DWIDTH 7 0
BBX 6 11 1 0
BITMAP
18
30
00
7c
cc
c0
f0
3c
0c
cc
f8
ENDCHAR
STARTCHAR section
ENCODING 167
SWIDTH 600 0
DWIDTH 7 0
BBX 6 10 1 -1
BITMAP
3c
64
60
b8
8c
c4
74
18
98
f0
ENDCHAR
STARTCHAR diaeresis
ENCODING 168
SWIDTH 600 0
DWIDTH 7 0
BBX 4 2 2 7
BITMAP
90
90
ENDCHAR
STARTCHAR Scaron
ENCODING 169
SWIDTH 600 0
DWIDTH 7 0
BBX 6 11 1 0
BITMAP
68
30
00
7c
cc
c0
f0
3c
0c
cc
f8
ENDCHAR
STARTCHAR Scedilla
ENCODING 170
SWIDTH 600 0
DWIDTH 7 0
BBX 6 11 1 -3
BITMAP
7c
cc
c0
f0
3c
0c
cc
f8
30
98
70
ENDCHAR
STARTCHAR Tcaron
ENCODING 171
SWIDTH 600 0
DWIDTH 7 0
BBX 6 11 1 0
BITMAP
68
30
00
fc
b4
30
30
30
30
30
78
ENDCHAR
STARTCHAR Zacute
ENCODING 172
SWIDTH 600 0
DWIDTH 7 0
BBX 6 11 1 0
BITMAP
18
30
00
fc
cc
9c
38
70
e4
cc
fc
ENDCHAR
STARTCHAR hyphen
ENCODING 173
SWIDTH 600 0
DWIDTH 7 0
BBX 5 1 1 3
BITMAP
f8
ENDCHAR
STARTCHAR Zcaron
ENCODING 174
SWIDTH 600 0
DWIDTH 7 0
BBX 6 11 1 0
BITMAP
68
30
00
fc
cc
9c
38
70
e4
cc
fc
ENDCHAR
STARTCHAR Zabovedot
ENCODING 175
SWIDTH 600 0
DWIDTH 7 0
BBX 6 11 1 0
BITMAP
20
20
00
fc
cc
9c
38
70
e4
cc
fc
ENDCHAR
STARTCHAR degree
ENCODING 176
SWIDTH 600 0
DWIDTH 7 0
BBX 4 4 2 4
BITMAP
60
90
90
60
ENDCHAR
STARTCHAR aogonek
ENCODING 177
SWIDTH 600 0
DWIDTH 7 0
BBX 7 9 1 -3
BITMAP
78
0c
7c
cc
cc
7e
18
30
1c
ENDCHAR
STARTCHAR ogonek
ENCODING 178
SWIDTH 600 0
DWIDTH 7 0
BBX 4 3 2 -3
BITMAP
60
c0
70
ENDCHAR
STARTCHAR lstroke
ENCODING 179
SWIDTH 600 0
DWIDTH 7 0
BBX 6 8 1 0
BITMAP
f0
30
30
38
70
30
30
fc
ENDCHAR
STARTCHAR acute
ENCODING 180
SWIDTH 600 0
DWIDTH 7 0
BBX 3 2 3 7
BITMAP
60
c0
ENDCHAR
STARTCHAR lcaron
ENCODING 181
SWIDTH 640 0
DWIDTH 8 0
BBX 7 10 1 0
BITMAP
02
f6
34
30
30
30
30
30
30
fc
ENDCHAR
STARTCHAR sacute
ENCODING 182
SWIDTH 600 0
DWIDTH 7 0
BBX 6 9 1 0
BITMAP
18
30
00
7c
e4
78
1c
cc
78
ENDCHAR
STARTCHAR caron
ENCODING 183
SWIDTH 600 0
DWIDTH 7 0
BBX 4 2 2 7
BITMAP
d0
60
ENDCHAR
STARTCHAR cedilla
ENCODING 184
SWIDTH 600 0
DWIDTH 7 0
BBX 5 3 1 -3
BITMAP
30
98
70
ENDCHAR
STARTCHAR scaron
ENCODING 185
SWIDTH 600 0
DWIDTH 7 0
BBX 6 9 1 0
BITMAP
68
30
00
7c
e4
78
1c
cc
78
ENDCHAR
STARTCHAR scedilla
ENCODING 186
SWIDTH 600 0
DWIDTH 7 0
BBX 6 9 1 -3
BITMAP
7c
e4
78
1c
cc
78
30
98
70
ENDCHAR
STARTCHAR tcaron
ENCODING 187
SWIDTH 600 0
DWIDTH 7 0
BBX 6 10 1 0
BITMAP
04
0c
68
60
fc
60
60
60
64
38
ENDCHAR
STARTCHAR zacute
ENCODING 188
SWIDTH 600 0
DWIDTH 7 0
BBX 6 9 1 0
BITMAP
18
30
00
fc
d8
30
60
ec
fc
ENDCHAR
STARTCHAR doubleacute
ENCODING 189
SWIDTH 600 0
DWIDTH 7 0
BBX 5 2 1 7
BITMAP
48
90
ENDCHAR
STARTCHAR zcaron
ENCODING 190
SWIDTH 600 0
DWIDTH 7 0
BBX 6 9 1 0
BITMAP
68
30
00
fc
d8
30
60
ec
fc
ENDCHAR
STARTCHAR zabovedot
ENCODING 191
SWIDTH 600 0
DWIDTH 7 0
BBX 6 9 1 0
BITMAP
20
20
00
fc
d8
30
60
ec
fc
ENDCHAR
STARTCHAR Racute
ENCODING 192
SWIDTH 600 0
DWIDTH 7 0
BBX 8 11 0 0
BITMAP
0c
18
00
fc
66
66
7c
6c
66
66
f7
ENDCHAR
STARTCHAR Aacute
ENCODING 193
SWIDTH 600 0
DWIDTH 7 0
BBX 8 11 0 0
BITMAP
0c
18
00
38
18
34
34
3c
66
66
e7
ENDCHAR
STARTCHAR Acircumflex
ENCODING 194
SWIDTH 600 0
DWIDTH 7 0
BBX 8 11 0 0
BITMAP
18
34
00
38
18
34
34
3c
66
66
e7
ENDCHAR
STARTCHAR Abreve
ENCODING 195
SWIDTH 600 0
DWIDTH 7 0
BBX 8 11 0 0
BITMAP
6c
38
00
38
18
34
34
3c
66
66
e7
ENDCHAR
STARTCHAR Adiaeresis
ENCODING 196
SWIDTH 600 0
DWIDTH 7 0
BBX 8 10 0 0
BITMAP
66
00
38
18
34
34
3c
66
66
e7
ENDCHAR
STARTCHAR Lacute
ENCODING 197
SWIDTH 600 0
DWIDTH 7 0
BBX 6 11 0 0
BITMAP
30
60
00
f0
60
60
60
60
60
64
fc
ENDCHAR
STARTCHAR Cacute
ENCODING 198
SWIDTH 600 0
DWIDTH 7 0
BBX 6 11 1 0
BITMAP
18
30
00
78
cc
cc
c0
c0
cc
cc
78
ENDCHAR
STARTCHAR Ccedilla
ENCODING 199
SWIDTH 600 0
DWIDTH 7 0
BBX 6 11 1 -3
BITMAP
78
cc
cc
c0
c0
cc
cc
78
30
98
70
ENDCHAR
STARTCHAR Ccaron
ENCODING 200
SWIDTH 600 0
DWIDTH 7 0
BBX 6 11 1 0
BITMAP
68
30
00
78
cc
cc
c0
c0
cc
cc
78
ENDCHAR
STARTCHAR Eacute
ENCODING 201
SWIDTH 600 0
DWIDTH 7 0
BBX 6 11 1 0
BITMAP
18
30
00
fc
64
60
78
68
64
64
fc
ENDCHAR
STARTCHAR Eogonek
ENCODING 202
SWIDTH 600 0
DWIDTH 7 0
BBX 6 11 1 -3
BITMAP
fc
64
60
78
68
60
64
fc
30
60
38
ENDCHAR
STARTCHAR Ediaeresis
ENCODING 203
SWIDTH 600 0
DWIDTH 7 0
BBX 6 10 1 0
BITMAP
cc
00
fc
64
60
78
68
64
64
fc
ENDCHAR
STARTCHAR Ecaron
ENCODING 204
SWIDTH 600 0
DWIDTH 7 0
BBX 6 11 1 0
BITMAP
68
30
00
fc
64
60
78
68
60
64
fc
ENDCHAR
STARTCHAR Iacute
ENCODING 205
SWIDTH 600 0
DWIDTH 7 0
BBX 6 11 1 0
BITMAP
18
30
00
fc
30
30
30
30
30
30
fc
ENDCHAR
STARTCHAR Icircumflex
ENCODING 206
SWIDTH 600 0
DWIDTH 7 0
BBX 6 11 1 0
BITMAP
30
68
00
fc
30
30
30
30
30
30
fc
ENDCHAR
STARTCHAR Dcaron
ENCODING 207
SWIDTH 600 0
DWIDTH 7 0
BBX 7 11 0 0
BITMAP
34
18
00
fc
66
66
66
66
66
66
fc
ENDCHAR
STARTCHAR Dstroke
ENCODING 208
SWIDTH 600 0
DWIDTH 7 0
BBX 7 8 0 0
BITMAP
fc
66
66
f6
66
66
66
fc
ENDCHAR
STARTCHAR Nacute
ENCODING 209
SWIDTH 600 0
DWIDTH 7 0
BBX 8 11 0 0
BITMAP
0c
18
00
e7
62
72
7a
5e
4e
46
e6
ENDCHAR
STARTCHAR Ncaron
ENCODING 210
SWIDTH 600 0
DWIDTH 7 0
BBX 8 11 0 0
BITMAP
34
18
00
e7
62
72
7a
5e
4e
46
e6
ENDCHAR
STARTCHAR Oacute
ENCODING 211
SWIDTH 600 0
DWIDTH 7 0
BBX 6 11 1 0
BITMAP
18
30
00
78
cc
cc
cc
cc
cc
cc
78
ENDCHAR
STARTCHAR Ocircumflex
ENCODING 212
SWIDTH 600 0
DWIDTH 7 0
BBX 6 11 1 0
BITMAP
30
68
00
78
cc
cc
cc
cc
cc
cc
78
ENDCHAR
STARTCHAR Odoubleacute
ENCODING 213
SWIDTH 600 0
DWIDTH 7 0
BBX 6 11 1 0
BITMAP
24
48
00
78
cc
cc
cc
cc
cc
cc
78
ENDCHAR
STARTCHAR Odiaeresis
ENCODING 214
SWIDTH 600 0
DWIDTH 7 0
BBX 6 10 1 0
BITMAP
cc
00
78
cc
cc
cc
cc
cc
cc
78
ENDCHAR
STARTCHAR multiply
ENCODING 215
SWIDTH 600 0
DWIDTH 7 0
BBX 6 5 1 1
BITMAP
cc
78
30
78
cc
ENDCHAR
STARTCHAR Rcaron
ENCODING 216
SWIDTH 600 0
DWIDTH 7 0
BBX 8 11 0 0
BITMAP
34
18
00
fc
66
66
7c
6c
66
66
f7
ENDCHAR
STARTCHAR Uring
ENCODING 217
SWIDTH 600 0
DWIDTH 7 0
BBX 8 12 0 0
BITMAP
18
34
18
00
f7
66
66
66
66
66
66
3c
ENDCHAR
STARTCHAR Uacute
ENCODING 218
SWIDTH 600 0
DWIDTH 7 0
BBX 8 11 0 0
BITMAP
0c
18
00
f7
66
66
66
66
66
66
3c
ENDCHAR
STARTCHAR Udoubleacute
ENCODING 219
SWIDTH 600 0
DWIDTH 7 0
BBX 8 11 0 0
BITMAP
12
24
00
f7
66
66
66
66
66
66
3c
ENDCHAR
STARTCHAR Udiaeresis
ENCODING 220
SWIDTH 600 0
DWIDTH 7 0
BBX 8 10 0 0
BITMAP
66
00
f7
66
66
66
66
66
66
3c
ENDCHAR
STARTCHAR Yacute
ENCODING 221
SWIDTH 600 0
DWIDTH 7 0
BBX 8 11 0 0
BITMAP
0c
18
00
e7
66
34
38
18
18
18
3c
ENDCHAR
STARTCHAR Tcedilla
ENCODING 222
SWIDTH 600 0
DWIDTH 7 0
BBX 6 11 1 -3
BITMAP
fc
b4
30
30
30
30
30
78
30
98
70
ENDCHAR
STARTCHAR ssharp
ENCODING 223
SWIDTH 600 0
DWIDTH 7 0
BBX 7 9 0 0
BITMAP
38
6c
6c
6c
78
6c
66
76
ec
ENDCHAR
STARTCHAR racute
ENCODING 224
SWIDTH 600 0
DWIDTH 7 0
BBX 6 9 1 0
BITMAP
18
30
00
dc
74
60
60
60
f8
ENDCHAR
STARTCHAR aacute
ENCODING 225
SWIDTH 600 0
DWIDTH 7 0
BBX 7 9 1 0
BITMAP
18
30
00
78
0c
7c
cc
cc
7e
ENDCHAR
STARTCHAR acircumflex
ENCODING 226
SWIDTH 600 0
DWIDTH 7 0
BBX 7 9 1 0
BITMAP
30
68
00
78
0c
7c
cc
cc
7e
ENDCHAR
STARTCHAR abreve
ENCODING 227
SWIDTH 600 0
DWIDTH 7 0
BBX 7 9 1 0
BITMAP
6c
38
00
78
0c
7c
cc
cc
7e
ENDCHAR
STARTCHAR adiaeresis
ENCODING 228
SWIDTH 600 0
DWIDTH 7 0
BBX 7 8 1 0
BITMAP
6c
00
78
0c
7c
cc
cc
7e
ENDCHAR
STARTCHAR lacute
ENCODING 229
SWIDTH 600 0
DWIDTH 7 0
BBX 6 12 1 0
BITMAP
30
60
00
f0
30
30
30
30
30
30
30
fc
ENDCHAR
STARTCHAR cacute
ENCODING 230
SWIDTH 600 0
DWIDTH 7 0
BBX 6 9 1 0
BITMAP
18
30
00
7c
cc
c0
c0
cc
78
ENDCHAR
STARTCHAR ccedilla
ENCODING 231
SWIDTH 600 0
DWIDTH 7 0
BBX 6 9 1 -3
BITMAP
7c
cc
c0
c0
cc
78
30
98
70
ENDCHAR
STARTCHAR ccaron
ENCODING 232
SWIDTH 600 0
DWIDTH 7 0
BBX 6 9 1 0
BITMAP
68
30
00
7c
cc
c0
c0
cc
78
ENDCHAR
STARTCHAR eacute
ENCODING 233
SWIDTH 600 0
DWIDTH 7 0
BBX 6 9 1 0
BITMAP
18
30
00
78
cc
fc
c0
cc
78
ENDCHAR
STARTCHAR eogonek
ENCODING 234
SWIDTH 600 0
DWIDTH 7 0
BBX 6 9 1 -3
BITMAP
78
cc
fc
c0
cc
78
30
60
38
ENDCHAR
STARTCHAR ediaeresis
ENCODING 235
SWIDTH 600 0
DWIDTH 7 0
BBX 6 8 1 0
BITMAP
6c
00
78
cc
fc
c0
cc
78
ENDCHAR
STARTCHAR ecaron
ENCODING 236
SWIDTH 600 0
DWIDTH 7 0
BBX 6 9 1 0
BITMAP
68
30
00
78
cc
fc
c0
cc
78
ENDCHAR
STARTCHAR iacute
ENCODING 237
SWIDTH 600 0
DWIDTH 7 0
BBX 6 9 1 0
BITMAP
18
30
00
f0
30
30
30
30
fc
ENDCHAR
STARTCHAR icircumflex
ENCODING 238
SWIDTH 600 0
DWIDTH 7 0
BBX 6 9 1 0
BITMAP
30
68
00
f0
30
30
30
30
fc
ENDCHAR
STARTCHAR dcaron
ENCODING 239
SWIDTH 720 0
DWIDTH 9 0
BBX 9 10 1 0
BITMAP
0080
1d80
0d00
0c00
7c00
cc00
cc00
cc00
cc00
7e00
ENDCHAR
STARTCHAR dstroke
ENCODING 240
SWIDTH 640 0
DWIDTH 8 0
BBX 8 9 1 0
BITMAP
0c
3f
0c
7c
cc
cc
cc
cc
7e
ENDCHAR
STARTCHAR nacute
ENCODING 241
SWIDTH 600 0
DWIDTH 7 0
BBX 7 9 0 0
BITMAP
0c
18
00
dc
76
66
66
66
f6
ENDCHAR
STARTCHAR ncaron
ENCODING 242
SWIDTH 600 0
DWIDTH 7 0
BBX 7 9 0 0
BITMAP
34
18
00
dc
76
66
66
66
f6
ENDCHAR
STARTCHAR oacute
ENCODING 243
SWIDTH 600 0
DWIDTH 7 0
BBX 6 9 1 0
BITMAP
30
60
00
78
cc
cc
cc
cc
78
ENDCHAR
STARTCHAR ocircumflex
ENCODING 244
SWIDTH 600 0
DWIDTH 7 0
BBX 6 9 1 0
BITMAP
30
68
00
78
cc
cc
cc
cc
78
ENDCHAR
STARTCHAR odoubleacute
ENCODING 245
SWIDTH 600 0
DWIDTH 7 0
BBX 6 9 1 0
BITMAP
24
48
00
78
cc
cc
cc
cc
78
ENDCHAR
STARTCHAR odiaeresis
ENCODING 246
SWIDTH 600 0
DWIDTH 7 0
BBX 6 8 1 0
BITMAP
cc
00
78
cc
cc
cc
cc
78
ENDCHAR
STARTCHAR division
ENCODING 247
SWIDTH 600 0
DWIDTH 7 0
BBX 6 5 1 1
BITMAP
30
00
fc
00
30
ENDCHAR
STARTCHAR rcaron
ENCODING 248
SWIDTH 600 0
DWIDTH 7 0
BBX 6 9 1 0
BITMAP
68
30
00
dc
74
60
60
60
f8
ENDCHAR
STARTCHAR uring
ENCODING 249
SWIDTH 600 0
DWIDTH 7 0
BBX 8 10 0 0
BITMAP
18
34
18
00
ee
66
66
66
66
3b
ENDCHAR
STARTCHAR uacute
ENCODING 250
SWIDTH 600 0
DWIDTH 7 0
BBX 8 9 0 0
BITMAP
18
30
00
ee
66
66
66
66
3b
ENDCHAR
STARTCHAR udoubleacute
ENCODING 251
SWIDTH 600 0
DWIDTH 7 0
BBX 8 9 0 0
BITMAP
12
24
00
ee
66
66
66
66
3b
ENDCHAR
STARTCHAR udiaeresis
ENCODING 252
SWIDTH 600 0
DWIDTH 7 0
BBX 8 8 0 0
BITMAP
6c
00
ee
66
66
66
66
3b
ENDCHAR
STARTCHAR yacute
ENCODING 253
SWIDTH 600 0
DWIDTH 7 0
BBX 8 12 0 -3
BITMAP
0c
18
00
f7
66
64
3c
38
18
30
30
78
ENDCHAR
STARTCHAR tcedilla
ENCODING 254
SWIDTH 600 0
DWIDTH 7 0
BBX 6 11 1 -3
BITMAP
60
60
fc
60
60
60
64
38
30
98
70
ENDCHAR
STARTCHAR abovedot
ENCODING 255
SWIDTH 600 0
DWIDTH 7 0
BBX 1 2 3 7
BITMAP
80
80
ENDCHAR
ENDFONT
